<svg width="14" height="14" viewBox="0 0 14 14" fill="none" xmlns="http://www.w3.org/2000/svg">
<path fill-rule="evenodd" clip-rule="evenodd" d="M5.394 0.666626C3.496 0.666626 1.97133 2.19063 1.97133 4.08929C1.97133 5.98796 3.49533 7.51263 5.394 7.51263C7.29333 7.51263 8.81733 5.98796 8.81733 4.08929C8.81733 2.19063 7.29333 0.666626 5.394 0.666626ZM5.394 1.66663C6.74067 1.66663 7.81733 2.74329 7.81733 4.08929C7.81733 5.43596 6.74067 6.51263 5.394 6.51263C4.04733 6.51263 2.97133 5.43596 2.97133 4.08929C2.97133 2.74263 4.048 1.66663 5.394 1.66663ZM12.378 4.07729C12.378 2.58796 11.17 1.37929 9.68 1.37929C9.404 1.37929 9.18 1.60329 9.18 1.87929C9.18 2.15596 9.404 2.37929 9.68 2.37929C10.618 2.37929 11.378 3.13996 11.378 4.07729C11.378 5.01529 10.618 5.77529 9.68 5.77529C9.404 5.77529 9.18 5.99929 9.18 6.27529C9.18 6.55196 9.404 6.77529 9.68 6.77529C11.17 6.77529 12.378 5.56796 12.378 4.07729ZM11.866 8.32929C11.4967 8.24729 11.112 8.19196 10.7247 8.16529C10.4493 8.14663 10.2113 8.35463 10.192 8.62996C10.1733 8.90596 10.3813 9.14463 10.6567 9.16329C10.994 9.18596 11.3293 9.23463 11.6607 9.30796C12.1787 9.41063 12.5213 9.58196 12.614 9.77663C12.684 9.92329 12.684 10.0966 12.614 10.2433C12.522 10.4373 12.1807 10.6086 11.668 10.714C11.3973 10.7693 11.2233 11.034 11.2793 11.304C11.3347 11.5746 11.5993 11.7493 11.8693 11.6933C12.666 11.5293 13.2493 11.2373 13.5173 10.6733C13.716 10.2533 13.716 9.76663 13.5173 9.34663C13.2473 8.78063 12.6587 8.48663 11.866 8.32929ZM0.333334 11.012C0.333334 9.26262 2.172 8.63729 5.394 8.63729L5.60733 8.63863C8.704 8.66529 10.4553 9.29062 10.4553 10.9986C10.4553 12.6706 8.77667 13.316 5.81533 13.37L5.394 13.3733C2.16467 13.3733 0.334001 12.76 0.334001 11.012H0.333334ZM9.45533 10.9986C9.45533 10.1006 8.07533 9.63729 5.394 9.63729C2.716 9.63729 1.334 10.1073 1.334 11.012C1.334 11.9113 2.71267 12.3733 5.394 12.3733C8.07267 12.3733 9.45533 11.9033 9.45533 10.9986Z" fill="#BDBDBD"/>
</svg>
